<svg width="139" height="29" viewBox="0 0 139 29" fill="none" xmlns="http://www.w3.org/2000/svg">
<path fill-rule="evenodd" clip-rule="evenodd" d="M43.4313 5.15356C38.6718 5.15356 34.8173 9.1236 34.8173 14.0075C34.8173 18.8914 38.6863 22.8614 43.4313 22.8614C48.191 22.8614 52.0454 18.8914 52.0454 14.0075C52.06 9.1236 48.191 5.15356 43.4313 5.15356ZM43.4313 28C35.9123 28 29.7949 21.7229 29.7949 13.9925C29.8094 6.27715 35.9123 0 43.4313 0C50.9504 0 57.0678 6.27715 57.0678 14.0075C57.0678 21.7229 50.9504 28 43.4313 28Z" fill="#002839"/>
<path fill-rule="evenodd" clip-rule="evenodd" d="M131.646 17.6928C134.566 16.1347 136.566 12.9886 136.566 9.37823C136.566 4.20964 132.477 0.0148926 127.44 0.0148926H111.468V0.0298739L114.709 5.13849V28.0148H119.717V5.15347H127.455C129.718 5.15347 131.572 7.04111 131.572 9.37823C131.572 11.7003 129.733 13.6029 127.455 13.6029H122.506L132.799 28.0148H138.58L131.646 17.6928Z" fill="#002839"/>
<path fill-rule="evenodd" clip-rule="evenodd" d="M20.7574 17.6929C23.6774 16.1348 25.6776 12.9887 25.6776 9.37832C25.6776 4.20974 21.5896 0.0149841 16.5526 0.0149841H0.580078V0.0299654L3.8213 5.13858V28.0149H8.82913V5.15356H16.5672C18.8302 5.15356 20.6844 7.0412 20.6844 9.37832C20.6844 11.7004 18.8447 13.603 16.5672 13.603H11.6177L21.9108 28.0149H27.6924L20.7574 17.6929Z" fill="#002839"/>
<path fill-rule="evenodd" clip-rule="evenodd" d="M108.649 28V22.9063H94.7211V16.5693H105.758V11.4756H94.7211V5.13857H108.649V0.029953H89.7568V28H108.649Z" fill="#002839"/>
<path fill-rule="evenodd" clip-rule="evenodd" d="M80.7204 0L71.975 23.0712L63.2441 0H57.915L68.5147 28H75.4351L86.0494 0H80.7204Z" fill="#002839"/>
</svg>
